<?xml version="1.0" standalone="no"?>
<!DOCTYPE svg PUBLIC "-//W3C//DTD SVG 20010904//EN"
 "http://www.w3.org/TR/2001/REC-SVG-20010904/DTD/svg10.dtd">
<svg version="1.0" xmlns="http://www.w3.org/2000/svg"
 width="1024.000000pt" height="1024.000000pt" viewBox="0 0 1024.000000 1024.000000"
 preserveAspectRatio="xMidYMid meet">

<g transform="translate(0.000000,1024.000000) scale(0.100000,-0.100000)"
fill="#000000" stroke="none">
<path d="M4620 8745 c-778 -118 -1396 -619 -1580 -1283 -64 -229 -75 -451 -35
-677 62 -342 266 -683 551 -916 161 -131 436 -288 634 -362 104 -39 308 -94
465 -127 276 -58 349 -74 449 -102 138 -38 356 -118 450 -165 275 -138 491
-354 588 -590 63 -151 90 -285 91 -443 2 -402 -156 -749 -462 -1017 -160 -140
-290 -214 -513 -291 -167 -59 -305 -84 -463 -84 -456 -1 -873 242 -1064 620
-91 181 -127 397 -97 596 26 179 85 294 208 411 60 57 101 85 180 123 119 58
175 72 296 72 99 0 179 -18 268 -59 94 -44 174 -125 174 -176 0 -25 -58 -75
-87 -75 -13 0 -63 8 -110 17 -70 14 -95 15 -139 5 -95 -19 -177 -91 -210 -183
-18 -52 -20 -178 -4 -241 31 -116 125 -242 234 -313 104 -69 292 -111 419 -95
140 18 353 135 440 242 112 138 180 408 147 588 -41 228 -159 462 -309 611
-215 214 -618 389 -895 389 -148 0 -394 -52 -534 -113 -189 -82 -427 -289
-554 -482 -175 -265 -252 -514 -251 -815 1 -484 145 -874 448 -1215 131 -148
413 -361 613 -463 178 -92 376 -158 561 -188 126 -21 390 -14 546 14 427 77
869 298 1195 597 157 144 320 341 297 358 -8 6 -6 7 5 3 11 -3 22 2 28 14 7
14 7 20 0 20 -5 0 -10 7 -10 15 0 8 -5 15 -10 15 -6 0 -10 6 -9 13 1 6 -1 23
-5 37 -4 14 -2 38 3 53 10 26 5 32 -21 28 -5 0 -8 4 -8 10 0 6 6 9 13 6 8 -3
20 -1 28 4 12 8 12 10 0 18 -12 8 -13 14 -3 36 7 15 9 31 6 37 -5 7 -2 8 5 4
7 -5 10 -14 7 -21 -2 -7 4 -15 15 -18 25 -7 34 9 12 22 -16 9 -16 10 5 11 12
0 22 -6 22 -14 0 -8 7 -17 16 -20 12 -4 14 -1 9 13 -7 23 4 73 15 66 5 -3 6 4
3 15 -3 11 -10 17 -17 13 -7 -4 -7 -1 1 7 8 9 9 19 2 32 -6 12 -6 18 1 18 5 0
10 -7 10 -15 0 -8 5 -15 11 -15 7 0 8 7 4 18 -14 31 -18 75 -7 68 11 -6 10 8
-3 36 -4 10 -5 25 -2 33 4 8 2 17 -3 20 -6 4 -10 -3 -10 -14 0 -14 -6 -21 -19
-21 -13 0 -23 -14 -36 -47 -96 -262 -383 -626 -645 -819 -234 -172 -411 -262
-658 -333 -257 -74 -339 -85 -587 -86 -248 0 -348 15 -539 82 -127 44 -177 69
-306 156 -145 97 -224 163 -338 282 -292 306 -424 615 -439 1027 -9 263 19
403 123 611 69 137 134 225 258 344 233 226 444 328 707 340 184 9 340 -31
554 -141 98 -50 135 -76 207 -145 184 -174 288 -392 288 -597 0 -165 -50 -285
-162 -388 -122 -114 -276 -171 -392 -146 -79 17 -190 75 -226 118 -93 113 -89
261 12 361 61 61 152 80 199 42 22 -18 24 -27 24 -113 l0 -93 37 -3 c41 -4
120 32 154 70 69 75 80 143 43 280 -50 184 -215 349 -415 417 -137 46 -340 48
-484 5 -248 -74 -485 -308 -573 -565 -48 -140 -60 -230 -54 -384 11 -259 83
-478 216 -655 253 -338 595 -537 1030 -601 227 -33 544 28 821 158 138 64 180
91 174 108 -4 8 -10 12 -15 9 -5 -3 -9 -1 -9 4 0 5 9 12 19 15 14 3 21 -1 23
-14 3 -18 5 -18 41 7 21 14 36 29 32 32 -3 4 -10 0 -16 -8 -7 -12 -10 -11 -15
8 -4 12 -11 22 -16 22 -5 0 -6 -4 -3 -10 3 -5 1 -11 -4 -11 -21 -3 -26 -4 -38
-12 -8 -5 -13 -4 -13 2 0 6 5 11 10 11 7 0 7 7 0 20 -9 16 -8 22 5 26 8 3 15
14 15 24 0 10 6 20 13 23 9 3 9 8 1 18 -29 38 -3 80 37 59 15 -8 21 -7 25 3 3
8 4 18 2 23 -4 14 25 54 40 54 7 0 11 4 7 9 -3 5 -1 12 5 16 5 3 10 -1 10 -9
0 -8 5 -18 11 -21 7 -5 9 3 6 23 -4 23 1 36 20 53 18 18 26 20 32 11 10 -17
41 -4 41 18 0 21 30 36 40 19 4 -6 10 -10 14 -10 23 3 26 0 17 -18 -6 -10 -7
-21 -4 -25 3 -3 1 -6 -6 -6 -9 0 -11 -8 -7 -25 4 -14 3 -25 -2 -25 -5 0 -8
-19 -8 -42 1 -47 -11 -68 -34 -60 -8 3 -12 2 -8 -3 4 -4 3 -14 -4 -22 -6 -7
-9 -16 -6 -19 10 -10 196 196 255 283 206 301 296 639 263 989 -21 226 -81
420 -181 585 -144 236 -303 378 -592 524 -196 99 -368 154 -852 272 -420 102
-511 129 -679 205 -373 167 -650 422 -807 743 -160 329 -170 674 -28 1032 156
396 584 776 1027 912 365 113 732 122 1179 31 256 -53 564 -171 758 -290 130
-79 289 -208 401 -322 130 -134 242 -277 224 -288 -7 -4 -8 -10 -4 -12 5 -3 4
-3 -3 -2 -16 4 -73 -16 -73 -25 0 -4 -6 -8 -12 -8 -7 0 -78 -26 -158 -58 -166
-66 -329 -110 -445 -120 -168 -14 -372 28 -537 111 -288 145 -473 400 -506
696 l-7 63 -50 7 c-133 17 -384 5 -580 -28 -257 -44 -525 -182 -696 -360 -303
-316 -398 -689 -271 -1067 47 -142 105 -244 207 -365 134 -160 299 -275 535
-375 134 -56 198 -75 470 -138 822 -191 995 -251 1270 -440 153 -104 327 -268
413 -387 17 -24 33 -38 37 -32 4 7 11 5 20 -5 11 -13 10 -15 -4 -9 -9 3 -16 4
-16 1 0 -3 24 -46 54 -96 29 -50 59 -105 67 -122 11 -29 14 -30 21 -13 6 14 7
12 4 -10 -4 -30 11 -76 24 -76 12 0 17 57 7 76 -6 11 -5 19 3 24 7 4 9 13 6
19 -4 6 -4 11 1 11 15 0 31 48 20 59 -13 13 -10 16 21 25 19 6 22 4 22 -18 0
-14 5 -28 10 -31 6 -4 10 5 10 20 0 17 4 24 11 19 14 -8 -83 179 -110 215
l-19 24 3 -26 c2 -15 -1 -29 -6 -33 -5 -3 -6 -11 -2 -17 4 -8 1 -7 -9 1 -14
11 -18 10 -27 -6 -6 -11 -7 -22 -4 -26 3 -3 1 -6 -5 -6 -7 0 -13 9 -13 20 -3
47 -9 54 -27 34 -10 -12 -10 -14 2 -14 8 0 14 -8 13 -19 -2 -24 -19 -22 -30 3
-5 12 -2 25 8 36 8 9 13 19 10 22 -3 2 9 3 26 0 28 -4 30 -3 23 23 -4 18 -2
30 6 35 17 11 -34 80 -145 198 -256 272 -590 452 -1063 572 -64 16 -135 36
-158 44 -23 8 -90 24 -150 36 -460 90 -716 182 -954 341 -118 79 -218 173
-274 258 -155 237 -189 554 -83 784 84 184 293 389 505 496 116 59 337 106
545 117 140 8 134 11 161 -81 35 -117 185 -356 286 -454 65 -64 184 -150 268
-194 90 -48 271 -110 381 -133 251 -50 636 31 985 207 147 74 278 161 273 180
-11 42 -259 362 -357 459 -376 376 -846 610 -1425 711 -159 28 -618 36 -765
14z m1928 -3504 c8 -4 12 -20 10 -36 l-3 -28 -16 37 c-17 36 -15 42 9 27z m55
-186 c-7 -21 -13 -19 -13 6 0 11 4 18 10 14 5 -3 7 -12 3 -20z m67 -51 c0 -1
-9 0 -20 3 -12 3 -20 0 -20 -7 0 -9 -6 -8 -18 3 -10 10 -22 14 -27 10 -4 -5
-5 -2 -1 5 5 7 14 11 22 8 9 -3 11 0 7 11 -5 12 2 10 25 -7 18 -13 32 -25 32
-26z m-7 -69 c-3 -9 -8 -14 -10 -11 -3 3 -2 9 2 15 9 16 15 13 8 -4z m-136
-1770 c-4 -8 -11 -15 -17 -15 -6 0 -6 7 2 20 14 22 24 19 15 -5z m-871 -232
c-10 -10 -19 5 -10 18 6 11 8 11 12 0 2 -7 1 -15 -2 -18z m14 -29 c0 -8 -5
-12 -10 -9 -6 4 -8 11 -5 16 9 14 15 11 15 -7z"/>
<path d="M5890 8108 c-54 -9 -128 -58 -160 -106 -50 -72 -34 -227 31 -305 44
-54 100 -79 185 -85 165 -11 254 67 254 220 -1 174 -147 305 -310 276z m119
-195 c28 -23 37 -81 18 -108 -18 -24 -76 -24 -112 -1 -35 23 -35 77 1 105 33
26 65 27 93 4z"/>
<path d="M4323 7780 c-71 -41 -167 -132 -225 -214 -95 -136 -128 -316 -90
-496 51 -247 183 -381 512 -524 170 -73 270 -105 505 -161 255 -60 553 -138
628 -164 31 -11 57 -17 57 -13 0 4 4 2 8 -3 4 -6 20 -16 36 -23 25 -11 30 -10
42 5 9 12 13 13 14 5 0 -7 6 -10 13 -7 6 4 4 0 -5 -8 -15 -12 -13 -15 27 -35
38 -19 47 -20 69 -8 34 17 23 26 -31 26 -23 0 -43 5 -43 11 0 5 5 7 11 3 8 -4
7 0 -1 15 -6 12 -15 19 -20 16 -10 -6 -43 10 -73 36 -12 11 -15 19 -8 24 12 7
5 25 -9 25 -5 0 -7 -7 -4 -15 5 -11 0 -14 -18 -13 -30 3 -31 23 -2 53 12 11
23 28 26 36 3 8 9 10 14 6 5 -4 4 -11 -2 -15 -6 -4 -14 -15 -17 -26 -6 -15 -4
-17 10 -10 10 4 47 9 83 10 36 2 72 4 80 4 8 1 -3 10 -25 20 -22 11 -41 15
-43 9 -6 -15 -62 -10 -68 6 -4 8 -14 15 -23 15 -12 0 -13 2 -3 9 9 5 -14 17
-68 35 -44 14 -85 24 -90 21 -4 -3 -10 -1 -12 4 -1 5 -79 26 -173 46 -488 106
-612 139 -783 213 -201 87 -298 169 -372 315 -44 87 -44 88 -44 195 -1 87 3
120 22 174 27 78 79 161 148 238 109 120 119 151 59 176 -46 19 -52 18 -112
-16z m1452 -1580 c3 -6 -1 -7 -9 -4 -18 7 -21 14 -7 14 6 0 13 -4 16 -10z"/>
<path d="M7094 7177 c-32 -29 -37 -40 -40 -88 -2 -45 -2 -49 5 -19 5 19 9 27
10 18 0 -9 6 -20 11 -23 6 -4 10 -3 9 2 -1 4 -1 15 1 23 1 11 4 9 9 -5 11 -28
-3 -70 -22 -69 -26 3 -20 -15 17 -52 29 -29 40 -34 63 -29 21 5 24 4 13 -4
-12 -8 -5 -11 28 -11 34 0 48 6 67 26 14 15 25 32 25 38 0 6 -5 3 -11 -6 -11
-20 -97 -25 -129 -8 -34 18 -46 141 -15 164 19 14 10 46 -13 46 -33 0 -1 13
38 15 55 3 64 15 12 15 -34 0 -50 -7 -78 -33z"/>
<path d="M7292 7030 c0 -14 2 -19 5 -12 2 6 2 18 0 25 -3 6 -5 1 -5 -13z"/>
<path d="M7075 7030 c3 -5 8 -10 11 -10 2 0 4 5 4 10 0 6 -5 10 -11 10 -5 0
-7 -4 -4 -10z"/>
<path d="M5785 6370 c3 -5 8 -10 11 -10 2 0 4 5 4 10 0 6 -5 10 -11 10 -5 0
-7 -4 -4 -10z"/>
<path d="M6021 6266 c-8 -10 -9 -16 -1 -21 5 -3 10 -5 11 -3 4 18 7 38 4 38
-1 0 -8 -6 -14 -14z"/>
<path d="M6805 4690 c1 -33 -2 -60 -7 -60 -4 0 -8 -5 -8 -10 0 -7 6 -7 19 0
22 11 42 14 24 2 -11 -7 -16 -25 -14 -51 1 -10 7 -8 20 8 16 18 20 19 31 6 6
-8 9 -19 5 -25 -3 -5 -2 -10 2 -10 5 0 8 -35 7 -77 l-2 -78 14 50 c12 45 12
57 -6 120 -21 79 -53 165 -45 123 3 -15 1 -29 -5 -33 -5 -3 -12 16 -16 45 -9
69 -21 63 -19 -10z"/>
<path d="M6640 4700 c0 -5 5 -10 11 -10 5 0 7 5 4 10 -3 6 -8 10 -11 10 -2 0
-4 -4 -4 -10z"/>
<path d="M6712 4633 c-20 -21 -22 -81 -5 -148 9 -33 21 -98 28 -145 9 -62 13
-74 14 -43 1 35 5 42 24 45 17 2 21 9 19 30 -2 23 1 27 15 22 11 -4 14 -3 7 3
-6 4 -14 21 -18 37 -4 15 -14 35 -21 43 -16 16 -20 63 -6 63 5 0 12 -6 14 -12
3 -8 6 -5 6 5 1 12 -10 23 -29 30 -16 6 -32 17 -35 25 -2 7 -1 10 4 7 5 -3 12
-1 16 5 3 5 -2 10 -12 10 -12 0 -14 3 -6 8 7 4 9 13 5 19 -5 7 -11 7 -20 -4z
m73 -213 c3 -5 1 -10 -4 -10 -6 0 -11 5 -11 10 0 6 2 10 4 10 3 0 8 -4 11 -10z
m-28 -52 c-3 -8 -6 -5 -6 6 -1 11 2 17 5 13 3 -3 4 -12 1 -19z"/>
<path d="M6785 4289 c-4 -6 -5 -12 -2 -15 2 -3 7 2 10 11 7 17 1 20 -8 4z"/>
<path d="M6779 4240 c-1 -11 -3 -24 -4 -30 -1 -5 -3 -77 -4 -160 -1 -102 -5
-150 -12 -150 -6 0 -9 7 -5 15 3 8 2 15 -3 15 -4 0 -11 -31 -14 -68 -4 -38
-10 -83 -13 -100 -5 -22 -3 -32 6 -32 7 0 10 7 5 18 -5 13 -3 14 6 5 13 -13 4
-33 -15 -33 -16 0 -35 -89 -31 -148 3 -50 15 -69 16 -26 3 83 5 103 18 118 9
10 10 16 2 16 -6 0 -11 6 -11 13 0 14 49 39 61 31 5 -3 9 4 9 15 0 11 -4 23
-10 26 -5 3 -10 11 -10 17 0 6 7 5 18 -3 9 -7 14 -9 10 -5 -4 5 -3 15 3 23 9
10 8 13 0 13 -8 0 -7 6 3 16 19 18 20 31 6 36 -7 2 -11 72 -11 201 0 119 -4
197 -9 197 -6 0 -11 -9 -11 -20z"/>
<path d="M6752 4220 c0 -14 2 -19 5 -12 2 6 2 18 0 25 -3 6 -5 1 -5 -13z"/>
<path d="M6941 4204 c0 -11 3 -14 6 -6 3 7 2 16 -1 19 -3 4 -6 -2 -5 -13z"/>
<path d="M6753 4150 c0 -25 2 -35 4 -22 2 12 2 32 0 45 -2 12 -4 2 -4 -23z"/>
<path d="M6753 4020 c0 -47 2 -66 4 -42 2 23 2 61 0 85 -2 23 -4 4 -4 -43z"/>
<path d="M6888 3780 c-9 -30 -8 -123 1 -165 l7 -30 8 38 c4 21 10 46 13 54 4
11 2 14 -5 9 -7 -4 -12 -1 -12 9 0 9 5 13 10 10 6 -3 10 1 10 10 0 9 -4 14 -9
10 -6 -3 -11 14 -13 37 -3 37 -4 39 -10 18z"/>
<path d="M6661 3513 c0 -6 -4 -20 -7 -30 -5 -14 -4 -15 5 -7 7 7 11 20 8 30
-3 11 -5 14 -6 7z"/>
<path d="M6812 3405 c0 -16 2 -22 5 -12 2 9 2 23 0 30 -3 6 -5 -1 -5 -18z"/>
<path d="M6722 3245 c0 -25 -4 -51 -9 -57 -15 -20 -24 -50 -13 -43 6 3 10 13
10 21 0 8 5 14 10 14 6 0 10 -6 10 -12 0 -9 3 -9 9 1 5 8 7 20 4 27 -3 8 0 27
5 43 7 20 7 32 -1 40 -20 20 -26 12 -25 -34z"/>
<path d="M6646 3111 c-4 -6 -3 -18 2 -27 8 -15 10 -14 16 2 8 20 -8 42 -18 25z"/>
<path d="M6575 3059 c-4 -6 -5 -12 -2 -15 2 -3 7 2 10 11 7 17 1 20 -8 4z"/>
<path d="M5881 2897 c-13 -21 -12 -21 5 -5 10 10 16 20 13 22 -3 3 -11 -5 -18
-17z"/>
<path d="M5836 2864 c-5 -14 -4 -15 9 -4 17 14 19 20 6 20 -5 0 -12 -7 -15
-16z"/>
<path d="M5766 2813 c-6 -14 -5 -15 5 -6 7 7 10 15 7 18 -3 3 -9 -2 -12 -12z"/>
</g>
</svg>
